<svg width="164" height="28" viewBox="0 0 164 28" fill="none" xmlns="http://www.w3.org/2000/svg">
<path d="M47.0234 24.3638H49.9267V16.9291H55.2389V14.4311H49.9267V9.37549H55.9802V6.87744H47.0234V24.3638Z" fill="#404040"/>
<path d="M59.4365 24.3635H62.278V6.28235H59.4365V24.3635Z" fill="#404040"/>
<path d="M65.6133 20.3188C65.6133 22.9358 67.8988 24.6606 70.7402 24.6606C72.408 24.6606 73.5199 24.1253 74.1994 23.3521L74.4465 24.3038H76.9173V15.9175C76.9173 13.0625 75.5583 10.9808 71.5433 10.9808C69.2577 10.9808 67.4664 11.8135 66.3545 12.4678L67.4664 14.371C68.4547 13.8357 69.7519 13.3599 71.2344 13.3599C73.0257 13.3599 74.1376 14.2521 74.1376 15.739V16.988C73.6434 16.5122 72.4698 16.0364 70.9255 16.0364C67.7135 16.0364 65.6133 17.8207 65.6133 20.3188ZM68.4547 20.2593C68.4547 18.9508 69.5666 17.9992 71.2962 17.9992C73.0257 17.9992 74.1994 18.8913 74.1994 20.2593C74.1994 21.6273 73.0257 22.5194 71.3579 22.5194C69.6284 22.5194 68.4547 21.5678 68.4547 20.2593Z" fill="#404040"/>
<path d="M79.8208 22.1031C80.5003 23.2926 81.921 24.7201 84.7007 24.7201C87.4803 24.7201 89.5805 23.1737 89.5805 20.7351C89.5805 16.1554 82.9711 17.1665 82.9711 14.6684C82.9711 13.7763 83.7741 13.241 84.7624 13.241C86.2449 13.241 86.9862 14.0737 87.3568 14.6684L89.2717 13.4194C88.7775 12.4083 87.4186 10.9808 84.886 10.9808C82.2916 10.9808 80.2532 12.4083 80.2532 14.6684C80.2532 19.1887 86.8626 18.2965 86.8626 20.7946C86.8626 21.8652 85.9979 22.4005 84.7624 22.4005C83.0946 22.4005 82.1681 21.5678 81.5504 20.6756L79.8208 22.1031Z" fill="#404040"/>
<path d="M99.3053 10.9811C97.5139 10.9811 96.0932 11.9922 95.5372 13.0033V6.28235H92.6958V24.3635H95.5372V16.5125C95.5372 14.7281 96.7109 13.4791 98.5022 13.4791C100.046 13.4791 101.22 14.5497 101.22 16.334V24.3635H104V16.5125C104.062 13.6575 102.826 10.9811 99.3053 10.9811Z" fill="#404040"/>
<path d="M107.617 24.3635H110.273V22.6386C110.644 23.1144 112.003 24.6609 114.659 24.6609C118.551 24.6609 121.268 21.8654 121.268 17.821C121.268 13.7765 118.674 10.9216 114.844 10.9216C112.25 10.9216 110.829 12.4085 110.459 13.0033V6.28235H107.617V24.3635ZM110.335 17.8804C110.335 15.0255 112.126 13.4196 114.412 13.4196C116.759 13.4196 118.427 15.2634 118.427 17.8804C118.427 20.5569 116.697 22.2818 114.35 22.2818C111.879 22.2818 110.335 20.319 110.335 17.8804Z" fill="#404040"/>
<path d="M123.678 20.3188C123.678 22.9358 125.963 24.6606 128.805 24.6606C130.472 24.6606 131.584 24.1253 132.264 23.3521L132.511 24.3038H134.982V15.9175C134.982 13.0625 133.623 10.9808 129.608 10.9808C127.322 10.9808 125.531 11.8135 124.419 12.4678L125.531 14.371C126.519 13.8357 127.816 13.3599 129.299 13.3599C131.09 13.3599 132.202 14.2521 132.202 15.739V16.988C131.708 16.5122 130.534 16.0364 128.99 16.0364C125.778 16.0364 123.678 17.8207 123.678 20.3188ZM126.519 20.2593C126.519 18.9508 127.631 17.9992 129.361 17.9992C131.09 17.9992 132.264 18.8913 132.264 20.2593C132.264 21.6273 131.09 22.5194 129.422 22.5194C127.693 22.5194 126.519 21.5678 126.519 20.2593Z" fill="#404040"/>
<path d="M151.969 24.3632H154.81V17.5233L159.999 24.3632H163.335L157.528 17.2259L162.964 11.3377H159.752L154.748 16.9285V6.2821H151.969V24.3632Z" fill="#404040"/>
<path d="M148.572 20.9133C147.954 21.3891 146.78 22.2218 145.174 22.2218C142.642 22.2218 140.788 20.3185 140.788 17.8205C140.788 15.3224 142.518 13.4786 145.051 13.4786C146.718 13.4786 147.954 14.2518 148.572 14.8466C148.695 13.7165 148.942 12.8839 149.127 12.3486C148.263 11.6943 146.904 10.9806 144.927 10.9806C140.912 10.9806 137.885 13.9545 137.885 17.8205C137.885 21.746 140.85 24.6604 144.989 24.6604C146.842 24.6604 148.201 23.9467 149.004 23.4114C148.88 22.8166 148.695 21.9839 148.572 20.9133Z" fill="#404040"/>
<path d="M6.16849 26.0563L13.769 4.94202L20.4534 23.0567C18.1273 20.9118 10.0885 20.8635 6.31667 26.1283C6.1989 26.2927 6.14001 26.3749 6.11983 26.3768C6.10208 26.3785 6.0861 26.3703 6.07726 26.355C6.0672 26.3377 6.10096 26.2439 6.16849 26.0563Z" fill="#F76565"/>
<path d="M33.3516 16.2989L13.7695 4.94336L20.4539 23.0581C20.838 19.9402 26.9647 14.8063 33.285 16.448C33.4823 16.4993 33.581 16.5249 33.5977 16.5136C33.6124 16.5036 33.6193 16.4872 33.6161 16.4699C33.6125 16.4503 33.5255 16.3998 33.3516 16.2989Z" fill="white"/>
</svg>
