<svg width="164" height="36" viewBox="0 0 164 36" fill="none" xmlns="http://www.w3.org/2000/svg">
<rect width="36" height="36" fill="white"/>
<mask id="mask0" mask-type="alpha" maskUnits="userSpaceOnUse" x="0" y="0" width="36" height="36">
<circle cx="18" cy="18" r="18" fill="#FF0000"/>
</mask>
<g mask="url(#mask0)">
<circle cx="18" cy="18" r="18" fill="#9CCFE5"/>
<path fill-rule="evenodd" clip-rule="evenodd" d="M6.71582 38.4822C4.31006 40.4529 1.23389 41.6355 -2.11865 41.6355C-9.82324 41.6355 -16.0688 35.3899 -16.0688 27.6855C-16.0688 19.9812 -9.82324 13.7356 -2.11865 13.7356C5.10938 13.7356 11.0537 19.2332 11.7607 26.2751C11.894 26.2195 12.0298 26.1667 12.167 26.1167C15.3564 24.9561 18.7676 25.637 21.2344 27.6165C22.2427 24.4668 24.6455 21.8008 27.9937 20.582C33.7388 18.491 40.0913 21.4531 42.1821 27.1982C44.2734 32.9434 41.311 39.2957 35.5659 41.3867C31.3682 42.9146 26.8472 41.7449 23.8999 38.7629C22.8984 40.9812 21.0376 42.8096 18.5698 43.7078C13.8364 45.4307 8.61572 43.0967 6.71582 38.4822Z" fill="url(#paint0_radial)"/>
<path d="M6.00133 26.5285L13.334 5.87671L19.7828 23.5946C17.5387 21.4966 9.78312 21.4494 6.14429 26.5989C6.03067 26.7597 5.97385 26.8401 5.95438 26.842C5.93726 26.8436 5.92184 26.8356 5.91331 26.8207C5.90361 26.8037 5.93618 26.7119 6.00133 26.5285Z" fill="#F76565"/>
<path d="M32.2258 16.9845L13.334 5.87769L19.7828 23.5956C20.1533 20.546 26.064 15.5246 32.1616 17.1304C32.352 17.1805 32.4472 17.2056 32.4633 17.1945C32.4775 17.1847 32.4841 17.1687 32.4811 17.1518C32.4776 17.1325 32.3937 17.0832 32.2258 16.9845Z" fill="white"/>
</g>
<path d="M47.0229 25.3638H49.9262V17.9291H55.2384V15.4311H49.9262V10.3755H55.9797V7.87744H47.0229V25.3638Z" fill="#404040"/>
<path d="M59.436 25.3636H62.2775V7.28247H59.436V25.3636Z" fill="#404040"/>
<path d="M65.6128 21.3189C65.6128 23.9359 67.8983 25.6607 70.7397 25.6607C72.4076 25.6607 73.5194 25.1255 74.1989 24.3522L74.446 25.3039H76.9168V16.9176C76.9168 14.0627 75.5578 11.981 71.5428 11.981C69.2573 11.981 67.4659 12.8136 66.354 13.4679L67.4659 15.3712C68.4542 14.8359 69.7514 14.3601 71.2339 14.3601C73.0253 14.3601 74.1371 15.2522 74.1371 16.7391V17.9882C73.643 17.5124 72.4693 17.0365 70.9251 17.0365C67.713 17.0365 65.6128 18.8209 65.6128 21.3189ZM68.4542 21.2594C68.4542 19.9509 69.5661 18.9993 71.2957 18.9993C73.0253 18.9993 74.1989 19.8914 74.1989 21.2594C74.1989 22.6274 73.0253 23.5196 71.3575 23.5196C69.6279 23.5196 68.4542 22.5679 68.4542 21.2594Z" fill="#404040"/>
<path d="M79.8203 23.1032C80.4998 24.2928 81.9205 25.7202 84.7002 25.7202C87.4799 25.7202 89.5801 24.1738 89.5801 21.7352C89.5801 17.1555 82.9706 18.1666 82.9706 15.6686C82.9706 14.7764 83.7736 14.2411 84.762 14.2411C86.2444 14.2411 86.9857 15.0738 87.3563 15.6686L89.2712 14.4195C88.777 13.4084 87.4181 11.981 84.8855 11.981C82.2911 11.981 80.2527 13.4084 80.2527 15.6686C80.2527 20.1888 86.8622 19.2967 86.8622 21.7947C86.8622 22.8653 85.9974 23.4006 84.762 23.4006C83.0941 23.4006 82.1676 22.5679 81.5499 21.6758L79.8203 23.1032Z" fill="#404040"/>
<path d="M99.3053 11.9812C97.5139 11.9812 96.0932 12.9923 95.5372 14.0034V7.28247H92.6958V25.3636H95.5372V17.5126C95.5372 15.7283 96.7109 14.4792 98.5022 14.4792C100.046 14.4792 101.22 15.5498 101.22 17.3341V25.3636H104V17.5126C104.062 14.6577 102.826 11.9812 99.3053 11.9812Z" fill="#404040"/>
<path d="M107.617 25.3636H110.273V23.6387C110.644 24.1146 112.003 25.661 114.659 25.661C118.551 25.661 121.268 22.8655 121.268 18.8211C121.268 14.7766 118.674 11.9217 114.844 11.9217C112.25 11.9217 110.829 13.4086 110.459 14.0034V7.28247H107.617V25.3636ZM110.335 18.8806C110.335 16.0256 112.126 14.4198 114.412 14.4198C116.759 14.4198 118.427 16.2636 118.427 18.8806C118.427 21.557 116.697 23.2819 114.35 23.2819C111.879 23.2819 110.335 21.3191 110.335 18.8806Z" fill="#404040"/>
<path d="M123.678 21.3189C123.678 23.9359 125.963 25.6607 128.805 25.6607C130.472 25.6607 131.584 25.1255 132.264 24.3522L132.511 25.3039H134.982V16.9176C134.982 14.0627 133.623 11.981 129.608 11.981C127.322 11.981 125.531 12.8136 124.419 13.4679L125.531 15.3712C126.519 14.8359 127.816 14.3601 129.299 14.3601C131.09 14.3601 132.202 15.2522 132.202 16.7391V17.9882C131.708 17.5124 130.534 17.0365 128.99 17.0365C125.778 17.0365 123.678 18.8209 123.678 21.3189ZM126.519 21.2594C126.519 19.9509 127.631 18.9993 129.361 18.9993C131.09 18.9993 132.264 19.8914 132.264 21.2594C132.264 22.6274 131.09 23.5196 129.422 23.5196C127.693 23.5196 126.519 22.5679 126.519 21.2594Z" fill="#404040"/>
<path d="M151.969 25.3631H154.81V18.5232L159.999 25.3631H163.335L157.528 18.2258L162.964 12.3376H159.752L154.748 17.9284V7.28198H151.969V25.3631Z" fill="#404040"/>
<path d="M148.572 21.9132C147.954 22.389 146.78 23.2217 145.174 23.2217C142.642 23.2217 140.788 21.3184 140.788 18.8204C140.788 16.3223 142.518 14.4785 145.051 14.4785C146.718 14.4785 147.954 15.2517 148.572 15.8465C148.695 14.7164 148.942 13.8837 149.127 13.3484C148.263 12.6942 146.904 11.9805 144.927 11.9805C140.912 11.9805 137.885 14.9543 137.885 18.8204C137.885 22.7459 140.85 25.6603 144.989 25.6603C146.842 25.6603 148.201 24.9465 149.004 24.4112C148.88 23.8165 148.695 22.9838 148.572 21.9132Z" fill="#404040"/>
<defs>
<radialGradient id="paint0_radial" cx="0" cy="0" r="1" gradientUnits="userSpaceOnUse" gradientTransform="translate(19.0894 13.7356) rotate(82.6157) scale(21.8833 42.5178)">
<stop stop-color="white"/>
<stop offset="1" stop-color="white" stop-opacity="0"/>
</radialGradient>
</defs>
</svg>
