<svg width="14" height="14" viewBox="0 0 14 14" fill="none" xmlns="http://www.w3.org/2000/svg">
<path d="M7.00639 13C8.86749 13 10.6113 12.1366 11.7544 10.6732C11.7544 10.6732 11.769 10.6732 11.769 10.6585C12.3992 9.85366 12.7948 8.91707 12.956 7.90732V7.89268C12.9707 7.80488 12.9853 7.71707 12.9853 7.62927C12.9853 7.61463 12.9853 7.58537 12.9853 7.57073C12.9853 7.49756 13 7.42439 13 7.35122C13 7.32195 13 7.30732 13 7.27805C13 7.17561 13 7.0878 13 6.98537C13 6.86829 13 6.76585 12.9853 6.64878C12.9853 6.60488 12.9853 6.56098 12.9707 6.51707C12.9707 6.45854 12.956 6.38537 12.956 6.32683C12.956 6.26829 12.9414 6.20976 12.9414 6.16585C12.9414 6.12195 12.9267 6.06341 12.9121 6.01951C12.8974 5.96098 12.8974 5.90244 12.8828 5.8439C12.8681 5.8 12.8681 5.7561 12.8535 5.71219C12.8388 5.65366 12.8241 5.58049 12.8095 5.52195C12.7948 5.47805 12.7802 5.43415 12.7802 5.40488C12.7509 5.31707 12.7216 5.22927 12.7069 5.14146C12.6776 5.06829 12.663 5.00976 12.6336 4.93659C12.619 4.89268 12.6043 4.84878 12.5897 4.80488C12.5604 4.74634 12.5457 4.6878 12.5164 4.61463C12.5018 4.57073 12.4871 4.52683 12.4578 4.49756C12.4285 4.43902 12.3992 4.38049 12.3699 4.32195C12.3552 4.29268 12.3552 4.27805 12.3406 4.24878C12.3406 4.24878 12.3406 4.24878 12.3259 4.23415C12.0475 3.70732 11.6958 3.20976 11.2708 2.78537L11.2561 2.77073C11.2268 2.74146 11.1829 2.7122 11.1536 2.68293C11.0949 2.62439 11.0363 2.58049 10.9777 2.52195C10.9337 2.47805 10.8751 2.43415 10.8312 2.39024C10.7432 2.31707 10.6553 2.2439 10.5674 2.18537C10.5234 2.1561 10.4795 2.12683 10.4355 2.09756C10.3476 2.03902 10.2743 1.98049 10.1864 1.92195C10.1571 1.90732 10.1278 1.87805 10.0984 1.86341C9.98121 1.79024 9.86398 1.73171 9.74674 1.67317C9.73209 1.65854 9.71744 1.65854 9.70278 1.6439C9.70278 1.6439 9.70278 1.6439 9.68813 1.6439C9.27781 1.43902 8.85283 1.27805 8.42786 1.17561C8.4132 1.17561 8.39855 1.17561 8.38389 1.16098C8.29597 1.13171 8.19339 1.11707 8.10546 1.10244C8.07615 1.10244 8.0615 1.0878 8.03219 1.0878C7.94426 1.07317 7.85634 1.05854 7.76841 1.0439C7.7391 1.0439 7.7098 1.0439 7.68049 1.02927C7.59256 1.01463 7.50464 1.01463 7.41671 1C7.3874 1 7.35809 1 7.34344 1C7.24086 1 7.12362 1 7.00639 1C6.99174 1 6.96243 1 6.94777 1H6.91846C6.58142 1 6.24437 1.0439 5.92197 1.10244H5.90732C5.81939 1.11707 5.73147 1.13171 5.64354 1.16098C5.62889 1.16098 5.61423 1.16098 5.59958 1.17561C5.51165 1.19024 5.42373 1.21951 5.3358 1.24878C5.32115 1.24878 5.32115 1.24878 5.30649 1.26341C5.21856 1.29268 5.11598 1.32195 5.02806 1.35122H5.0134C4.33931 1.58537 3.72383 1.93659 3.16696 2.39024C3.15231 2.40488 3.123 2.41951 3.10835 2.44878C3.04973 2.49268 3.00577 2.53659 2.94715 2.58049C2.90319 2.60976 2.87388 2.65366 2.84457 2.68293C2.81526 2.7122 2.7713 2.74146 2.74199 2.78537C2.69802 2.82927 2.65406 2.87317 2.6101 2.91707C2.58079 2.94634 2.56614 2.97561 2.53683 3.00488C2.49286 3.04878 2.4489 3.10732 2.40494 3.15122C2.39028 3.18049 2.36098 3.19512 2.34632 3.22439C2.30236 3.26829 2.2584 3.32683 2.22909 3.38537C2.21443 3.41463 2.18512 3.4439 2.17047 3.45854C2.12651 3.51707 2.0972 3.56098 2.05324 3.61951C2.03858 3.63415 2.02393 3.66341 1.99462 3.69268C1.97996 3.72195 1.96531 3.75122 1.936 3.76585V3.78049C0.16283 6.57561 0.983471 10.278 3.76779 12.0634C4.73497 12.678 5.86335 13 7.00639 13ZM11.1975 10.4244C11.051 10.3805 10.9191 10.2634 10.8605 10.1171C10.8312 10.0585 10.8165 10 10.8165 9.94146C10.9044 9.75122 10.9191 9.26829 10.9191 8.71219C10.9191 8.52195 11.1242 8.36098 11.3441 8.18537C11.476 8.08293 11.6078 7.98049 11.7104 7.86341C11.7983 7.79024 11.8277 7.6878 11.7983 7.58537C11.7544 7.42439 11.5639 7.38049 11.3587 7.33659C11.2561 7.32195 11.1682 7.29268 11.0803 7.24878C11.1096 7.05854 11.0656 6.86829 10.9484 6.72195C10.8019 6.56098 10.5967 6.47317 10.3769 6.4878C10.1717 6.4878 9.96656 6.41463 9.9226 5.85854C9.90794 5.66829 9.79071 5.49268 9.6002 5.43415C9.46831 5.39024 9.36573 5.27317 9.33642 5.12683C9.26315 4.83415 9.439 4.73171 9.87863 4.5561C9.93725 4.52683 9.99587 4.51219 10.0545 4.48293C10.2303 4.40976 10.7579 4.39512 11.4466 4.46829C11.6372 4.48293 11.8423 4.48293 12.0328 4.46829L12.1207 4.45366C12.1207 4.46829 12.1354 4.46829 12.1354 4.48293C12.1647 4.5561 12.194 4.61463 12.238 4.6878C12.2526 4.71707 12.2673 4.74634 12.2819 4.79024C12.3112 4.86341 12.3406 4.95122 12.3845 5.03902C12.3992 5.09756 12.4285 5.1561 12.4431 5.2C12.4578 5.2439 12.4724 5.27317 12.4871 5.31707C12.5018 5.37561 12.5164 5.43415 12.5457 5.49268C12.5604 5.52195 12.5604 5.56585 12.575 5.59512C12.5897 5.65366 12.6043 5.71219 12.619 5.78537C12.6336 5.81463 12.6336 5.85854 12.6483 5.8878C12.663 5.94634 12.6776 6.00488 12.6776 6.06341C12.6776 6.10732 12.6923 6.15122 12.6923 6.19512C12.7069 6.25366 12.7069 6.31219 12.7069 6.37073C12.7069 6.42927 12.7216 6.4878 12.7216 6.53171C12.7216 6.57561 12.7362 6.61951 12.7362 6.66341C12.7362 6.76585 12.7509 6.86829 12.7509 6.97073C12.7509 7.05854 12.7509 7.14634 12.7509 7.24878C12.7509 7.27805 12.7509 7.29268 12.7509 7.32195C12.7509 7.39512 12.7362 7.46829 12.7362 7.54146C12.7362 7.5561 12.7362 7.58537 12.7362 7.6C12.7216 7.6878 12.7216 7.77561 12.7069 7.86341C12.5604 8.8 12.194 9.67805 11.6225 10.4244C11.4466 10.439 11.3294 10.439 11.1975 10.4244ZM10.5967 2.99024C10.4941 3.15122 10.3183 3.26829 10.1278 3.28293C9.96656 3.28293 9.80536 3.29756 9.64416 3.34146C9.51228 3.37073 9.36573 3.38537 9.23384 3.37073C9.02868 3.32683 8.86749 3.20976 8.76491 3.03415C8.75025 2.99024 8.75025 2.8439 9.13126 2.34634C9.27781 2.18537 9.45366 2.05366 9.65882 1.95122C9.67347 1.95122 9.68813 1.96585 9.70278 1.96585C9.79071 2.00976 9.86398 2.05366 9.9519 2.09756C9.99587 2.12683 10.0545 2.1561 10.0984 2.18537C10.1424 2.21463 10.201 2.2439 10.245 2.2878C10.3036 2.31707 10.3476 2.36098 10.4062 2.39024C10.4355 2.41951 10.4648 2.43415 10.4941 2.46341C10.626 2.56585 10.7725 2.68293 10.8898 2.8C10.6846 2.87317 10.626 2.91707 10.5967 2.99024ZM7.53394 2.18537C7.48998 2.22927 7.41671 2.25854 7.35809 2.25854C7.21155 2.2 7.07966 2.09756 7.00639 1.96585C6.96243 1.90732 6.94777 1.6878 7.0357 1.29268C7.07966 1.29268 7.12362 1.29268 7.16759 1.29268C7.2262 1.29268 7.27017 1.29268 7.32878 1.29268C7.35809 1.29268 7.3874 1.29268 7.41671 1.29268C7.48998 1.29268 7.5486 1.30732 7.62187 1.30732C7.63652 1.30732 7.65118 1.30732 7.66583 1.30732C7.75376 1.32195 7.82703 1.32195 7.91496 1.33659C7.92961 1.33659 7.92961 1.33659 7.94427 1.33659C8.03219 1.35122 8.12012 1.36585 8.19339 1.38049C8.19339 1.38049 8.19339 1.38049 8.20804 1.38049C8.01754 1.70244 7.78307 1.96585 7.53394 2.18537ZM5.95128 2.63902C6.2004 2.94634 6.3616 3.32683 6.27367 3.4439C6.17109 3.63415 5.96593 3.75122 5.76077 3.78049C5.64354 3.76585 5.54096 3.73659 5.43838 3.67805C5.26253 3.60488 5.05737 3.50244 4.95479 3.67805C4.91082 3.78049 4.88152 3.88293 4.88152 3.98537C4.86686 4.11707 4.85221 4.32195 4.77894 4.35122C4.63239 4.36585 4.5005 4.35122 4.35396 4.32195C3.97295 4.27805 3.53332 4.21951 3.44539 4.52683C3.35747 4.86341 3.6359 5.12683 3.76779 5.25854C3.78244 5.27317 3.7971 5.2878 3.81175 5.30244C3.84106 5.33171 4.10484 5.65366 4.8229 5.65366C4.9841 5.65366 5.10133 5.63902 5.21856 5.63902C5.51165 5.60976 5.58492 5.60976 5.6875 5.77073C5.76077 5.90244 5.79008 6.04878 5.79008 6.20976C5.80474 6.42927 5.81939 6.72195 6.09782 6.75122C6.27367 6.75122 6.44953 6.70732 6.62538 6.61951C6.84519 6.53171 7.09432 6.42927 7.27017 6.50244C7.60722 6.66341 7.95892 7 7.91496 7.24878C7.9003 7.30732 7.9003 7.36585 7.88565 7.43902C7.84168 7.77561 7.79772 7.98049 7.46067 8.09756C6.8745 8.2878 6.74261 8.58049 6.69865 9.03415C6.62538 9.34146 6.42022 9.63415 6.11248 9.76585C5.71681 9.97073 5.6875 10.2341 5.64354 10.5561V10.6146C5.62889 10.761 5.64354 10.8927 5.67285 11.0244C5.70216 11.1415 5.70216 11.1707 5.67285 11.2146C5.62889 11.2293 5.58492 11.2439 5.54096 11.2146C5.40907 11.2 5.30649 11.1122 5.26253 10.9805C5.24787 10.7902 5.24787 10.6146 5.24787 10.4244C5.26253 9.9122 5.24787 9.56098 5.15995 9.38537C5.10133 9.22439 5.04271 9.04878 5.02806 8.87317C4.9841 8.58049 4.89617 8.30244 4.76428 8.03902C4.63239 7.86341 4.4712 7.71707 4.28069 7.61463C4.06087 7.46829 3.82641 7.30732 3.82641 7.13171C3.82641 6.69268 3.82641 6.01951 3.24023 5.62439C2.72733 5.2878 2.19978 4.92195 2.19978 4.14634C2.19978 4.05854 2.21443 3.97073 2.21443 3.86829C2.22909 3.85366 2.24374 3.82439 2.2584 3.80976C2.27305 3.78049 2.2877 3.76585 2.30236 3.73659C2.33167 3.67805 2.37563 3.63415 2.41959 3.57561C2.43425 3.54634 2.4489 3.53171 2.46356 3.50244C2.50752 3.45854 2.53683 3.4 2.58079 3.3561C2.59544 3.32683 2.62475 3.3122 2.63941 3.28293C2.68337 3.23902 2.71268 3.19512 2.75664 3.13659C2.78595 3.10732 2.8006 3.09268 2.82991 3.06341C2.87388 3.01951 2.90319 2.97561 2.94715 2.94634C2.97646 2.91707 3.00577 2.8878 3.03507 2.85854C3.06438 2.82927 3.10835 2.78537 3.13765 2.7561C3.18162 2.72683 3.21093 2.68293 3.25489 2.65366C3.2842 2.62439 3.31351 2.60976 3.34281 2.58049C3.38678 2.53659 3.44539 2.50732 3.48936 2.46341C3.50401 2.44878 3.53332 2.43415 3.54797 2.41951C3.60659 2.37561 3.66521 2.33171 3.72383 2.2878C3.73848 2.27317 3.75313 2.27317 3.75313 2.25854C3.82641 2.21463 3.89968 2.1561 3.97295 2.1122C3.97295 2.1122 3.9876 2.1122 3.9876 2.09756C4.45654 1.80488 4.96944 1.58537 5.51165 1.43902C5.59958 1.40976 5.6875 1.39512 5.77543 1.38049C5.77543 1.40976 5.76077 1.45366 5.76077 1.49756C5.76077 1.61463 5.67285 2.30244 5.95128 2.63902ZM1.90669 4.42439C2.00927 5.2 2.59544 5.58049 3.07904 5.90244C3.53332 6.20976 3.53332 6.73659 3.53332 7.16097C3.53332 7.49756 3.84106 7.70244 4.11949 7.89268C4.26604 7.98049 4.39792 8.08293 4.51516 8.22927C4.61774 8.46341 4.70566 8.72683 4.73497 8.97561C4.76428 9.18049 4.8229 9.37073 4.89617 9.56098C4.96944 9.69268 4.95479 10.1463 4.95479 10.4537C4.94013 10.6585 4.95479 10.8634 4.96944 11.0537C5.05737 11.3317 5.30649 11.5366 5.59958 11.5366C5.71681 11.5366 5.83405 11.4927 5.90732 11.3902C5.98059 11.2585 6.0099 11.1122 5.95128 10.9659C5.92197 10.8634 5.92197 10.7463 5.92197 10.6439V10.5854C5.95128 10.278 5.96593 10.1463 6.22971 10.0146C6.62538 9.83902 6.90381 9.47317 6.94777 9.03415C6.97708 8.66829 7.06501 8.49268 7.50464 8.34634C8.01754 8.17073 8.07615 7.76097 8.12012 7.45366C8.13477 7.39512 8.13477 7.33659 8.14943 7.29268C8.23735 6.86829 7.79772 6.42927 7.34344 6.22439C7.06501 6.09268 6.74261 6.22439 6.47884 6.32683C6.3616 6.38537 6.22971 6.42927 6.08317 6.42927C6.05386 6.34146 6.03921 6.25366 6.03921 6.16585C6.03921 5.96098 5.99524 5.7561 5.89266 5.58049C5.6875 5.2878 5.45303 5.30244 5.15995 5.33171C5.05737 5.34634 4.94013 5.34634 4.79359 5.34634C4.22207 5.34634 4.01691 5.1122 4.01691 5.1122C3.9876 5.08293 3.97295 5.05366 3.94364 5.03902C3.7971 4.90732 3.66521 4.74634 3.70917 4.58537C3.75313 4.52683 4.13415 4.57073 4.29534 4.58537C4.4712 4.62927 4.6617 4.62927 4.85221 4.6C5.11598 4.5122 5.14529 4.20488 5.15995 3.98537C5.15995 3.94146 5.1746 3.89756 5.1746 3.85366C5.21856 3.86829 5.27718 3.89756 5.32115 3.91219C5.45303 3.98537 5.59958 4.02927 5.76077 4.0439C6.06851 4.02927 6.3616 3.85366 6.5228 3.59024C6.74261 3.26829 6.42022 2.7122 6.18575 2.43415C6.02455 2.2439 6.05386 1.73171 6.08317 1.57073C6.09782 1.49756 6.11248 1.42439 6.11248 1.35122C6.33229 1.32195 6.53745 1.29268 6.75727 1.27805C6.68399 1.67317 6.684 1.95122 6.78658 2.09756C6.96243 2.36098 7.13828 2.49268 7.34344 2.52195C7.35809 2.52195 7.3874 2.52195 7.40206 2.52195C7.53394 2.52195 7.65118 2.46341 7.75376 2.37561C7.97357 2.18537 8.38389 1.76098 8.53044 1.45366C8.80887 1.52683 9.0873 1.62927 9.36573 1.74634C9.18988 1.84878 9.04334 1.96585 8.9261 2.1122C8.61836 2.52195 8.42786 2.8439 8.53044 3.07805C8.66233 3.3561 8.9261 3.54634 9.23384 3.60488C9.27781 3.60488 9.30712 3.61951 9.35108 3.61951C9.48297 3.61951 9.61486 3.60488 9.73209 3.57561C9.87863 3.54634 10.0252 3.53171 10.1571 3.53171C10.4502 3.51707 10.7286 3.3561 10.8751 3.09268C10.9631 3.04878 11.051 3.01951 11.1389 3.00488C11.476 3.3561 11.769 3.73659 12.0035 4.16098C11.8423 4.17561 11.6665 4.17561 11.5053 4.16098C10.9777 4.10244 10.2743 4.07317 9.96656 4.20488C9.90794 4.23415 9.86398 4.24878 9.80536 4.27805C9.439 4.42439 8.94076 4.61463 9.10195 5.18537C9.14592 5.40488 9.30711 5.59512 9.51227 5.68293C9.61486 5.74146 9.65882 5.7561 9.67347 5.87317C9.71744 6.45854 9.98121 6.76585 10.4208 6.76585C10.5527 6.75122 10.6846 6.80976 10.7725 6.89756C10.8458 6.98537 10.8605 7.0878 10.8458 7.19024C10.8019 7.46829 11.1389 7.54146 11.3587 7.6C11.4173 7.61463 11.4906 7.62927 11.5492 7.6439C11.4466 7.74634 11.3294 7.83415 11.2268 7.92195C10.9631 8.12683 10.6846 8.34634 10.6846 8.68293C10.6846 8.99024 10.6846 9.64878 10.6113 9.79512C10.5527 9.92683 10.5674 10.0878 10.6407 10.2195C10.7432 10.4537 10.9337 10.6293 11.1829 10.7024C11.2415 10.7171 11.3148 10.7317 11.3734 10.7317C9.30712 13.1171 5.70216 13.3805 3.31351 11.3317C1.27656 9.60488 0.719694 6.75122 1.90669 4.42439Z" fill="#2D2D2D" stroke="#2D2D2D" stroke-width="0.5"/>
</svg>
