<svg width="21" height="21" viewBox="0 0 21 21" fill="none" xmlns="http://www.w3.org/2000/svg">
<path fill-rule="evenodd" clip-rule="evenodd" d="M4.35352 3.64648C4.1582 3.45117 3.8418 3.45117 3.64648 3.64648C3.45117 3.84167 3.45117 4.15833 3.64648 4.35352L9.79297 10.5L3.64648 16.6465C3.45117 16.8417 3.45117 17.1583 3.64648 17.3535C3.8418 17.5488 4.1582 17.5488 4.35352 17.3535L10.5 11.207L16.6465 17.3535C16.8418 17.5488 17.1582 17.5488 17.3535 17.3535C17.5488 17.1583 17.5488 16.8417 17.3535 16.6465L11.207 10.5L17.3535 4.35352C17.5488 4.15833 17.5488 3.84167 17.3535 3.64648C17.1582 3.45117 16.8418 3.45117 16.6465 3.64648L10.5 9.79297L4.35352 3.64648Z" fill="#2D2D2D"/>
</svg>
