<svg width="42" height="42" viewBox="0 0 42 42" fill="none" xmlns="http://www.w3.org/2000/svg">
<rect width="42" height="42" fill="white"/>
<path fill-rule="evenodd" clip-rule="evenodd" d="M13.0879 17.2179C13.0332 17.2982 13 17.3954 13 17.5C13 17.7761 13.2246 18 13.5 18H28.5C28.6738 18 28.8281 17.9103 28.918 17.7744C28.9707 17.6957 29 17.6013 29 17.5C29 17.2239 28.7754 17 28.5 17H13.5C13.3281 17 13.1777 17.0863 13.0879 17.2179ZM13.125 24.1687C13.0469 24.257 13 24.3729 13 24.5C13 24.7761 13.2246 25 13.5 25H28.5C28.7754 25 29 24.7761 29 24.5C29 24.2239 28.7754 24 28.5 24H13.5C13.3516 24 13.2168 24.0652 13.125 24.1687Z" fill="#2D2D2D"/>
</svg>
