<svg width="212" height="40" viewBox="0 0 212 40" fill="none" xmlns="http://www.w3.org/2000/svg">
<path d="M18.734 2.66686e-09H15.4899C15.4899 2.66686e-09 15.1243 0.223713 15.1243 0.805366C15.1243 1.4765 15.4899 1.65547 15.4899 1.65547H18.3685C22.5265 1.65547 25.131 4.38477 25.131 9.70914C25.131 15.4809 22.5722 17.9865 17.9573 17.9865H16.1296C15.8554 17.9865 15.6269 17.6286 15.6269 17.4943C15.6269 16.4205 15.6269 9.6644 15.6269 9.08274C15.6269 6.3087 13.6621 4.78746 10.555 4.78746C8.45316 4.78746 6.9453 5.72705 6.07714 7.29304C6.07714 6.75613 6.07714 5.81653 6.07714 5.54808C6.07714 5.27962 5.89437 5.1454 5.66591 5.1454C5.43744 5.1454 0.365543 5.1454 0.365543 5.1454C0.365543 5.1454 -6.97217e-07 5.45859 -6.97217e-07 5.9955C-6.97217e-07 6.57716 0.365543 6.80087 0.365543 6.80087C0.365543 6.80087 1.18801 6.80087 1.55355 6.80087C1.8734 6.80087 2.19325 7.11407 2.19325 7.51675C2.19325 7.82995 2.19325 17.4943 2.19325 17.4943C2.19325 17.7181 1.9191 17.9418 1.69063 17.9418H0.548315L0.0456914 19.3735C3.51834 19.3735 7.6307 19.3735 7.6307 19.3735C7.6307 19.3735 7.90485 19.1051 7.90485 18.6129C7.90485 18.1207 7.6307 17.9418 7.6307 17.9418H6.71684C6.44268 17.9418 6.25991 17.7181 6.25991 17.4943V9.70914C6.991 7.74046 8.45316 6.53241 9.64118 6.53241C10.7835 6.53241 11.5146 7.38252 11.5146 8.63532C11.5146 9.26171 11.5146 16.2416 11.5146 17.4049C11.5146 17.7181 11.2861 17.9418 11.0577 17.9418H9.96103C9.96103 17.9418 9.68687 18.1655 9.68687 18.6129C9.68687 19.1051 10.0067 19.3735 10.0067 19.3735H18.9168C27.8269 19.3735 30.1115 14.1387 30.1115 9.70914C30.1115 2.68455 25.1767 2.66686e-09 18.734 2.66686e-09Z" transform="translate(60.8625 0.35791) scale(2)" fill="#EE3224"/>
<path d="M13.7992 13.3333C12.8397 13.2438 12.7026 12.6621 12.7026 12.0358V4.42951C12.7026 3.31095 12.2914 2.01342 11.3318 1.25279C10.1438 0.268455 8.40747 -8.53397e-08 6.85392 -8.53397e-08C4.88913 -8.53397e-08 3.33557 0.223713 1.73633 0.760624C1.55356 0.805366 1.50786 0.984336 1.50786 1.20805C1.50786 1.96867 1.50786 2.4161 1.50786 3.31095C1.50786 3.48992 1.64494 3.57941 1.78202 3.57941C1.78202 3.57941 2.5131 3.57941 2.60449 3.57941C2.78726 3.57941 2.92434 3.48992 3.06142 3.31095C3.51834 2.7293 4.11235 2.23713 4.56928 1.96867C4.98051 1.74496 5.66591 1.4765 6.3513 1.4765C7.95054 1.4765 8.63594 2.63981 8.63594 3.98209V6.12973C2.5131 5.77179 -6.97217e-07 7.56149 -6.97217e-07 10.3803C-6.97217e-07 13.6017 2.28464 14.944 4.47789 14.944C6.48838 14.944 8.04193 14.1834 8.8644 13.0201C9.04717 14.0044 9.64118 14.7203 10.4636 14.7203C10.8749 14.7203 12.1086 14.7203 13.6621 14.7203L14.1648 13.2885H13.7992V13.3333ZM8.72732 11.2304C8.08762 12.0358 7.08238 12.7069 5.98576 12.7069C4.56928 12.7069 3.7925 12.0358 3.7925 10.5145C3.7925 8.7248 4.66066 7.78521 8.72732 7.78521V11.2304Z" transform="translate(30.7063 9.5752) scale(2)" fill="#EE3224"/>
<path d="M8.49886 12.7964H6.80822C6.53407 12.7964 6.39699 12.6621 6.39699 12.3937C6.39699 12.3937 6.39699 0.850109 6.39699 0.536911C6.39699 0.223713 6.25991 -1.70679e-07 5.84868 -1.70679e-07C5.43744 -1.70679e-07 0.685392 -1.70679e-07 0.685392 -1.70679e-07C0.685392 -1.70679e-07 0.365544 0.313198 0.365544 0.805366C0.365544 1.29753 0.685392 1.61073 0.685392 1.61073C0.685392 1.61073 2.01048 1.61073 2.14756 1.61073C2.23895 1.61073 2.33034 1.70022 2.33034 1.83445C2.33034 1.96867 2.33034 12.3937 2.33034 12.3937C2.33034 12.6174 2.10187 12.7964 1.96479 12.7964H0.319848C0.319848 12.7964 0 12.9753 0 13.4675C0 13.9149 0.319848 14.1834 0.319848 14.1834H8.54455C8.54455 14.1834 8.81871 13.8702 8.81871 13.4228C8.72732 13.0201 8.49886 12.7964 8.49886 12.7964Z" transform="translate(123.828 10.6484) scale(2)" fill="#EE3224"/>
<path d="M6.71684 7.15881C3.88389 6.21922 3.28988 5.41385 3.28988 4.29529C3.28988 3.08724 4.4322 1.83445 6.89961 1.83445C7.76777 1.83445 8.68163 2.1029 9.5041 2.63981C10.0067 2.95301 10.555 3.48992 11.1947 4.519C11.2404 4.65323 11.4232 4.69797 11.4689 4.69797C11.6974 4.69797 12.3827 4.69797 12.3827 4.69797C12.5198 4.69797 12.5655 4.60848 12.5655 4.47426C12.5655 3.84786 12.5655 2.19239 12.5655 1.16331C12.5655 0.984336 12.4284 0.850109 12.2457 0.805366C10.6007 0.268455 8.95579 0 6.76253 0C2.69587 0 0 2.23713 0 5.68231C0 9.08274 2.60449 10.4698 6.03145 11.5436C8.17901 12.2147 10.7835 13.0648 10.7835 15.1677C10.7835 16.4205 9.64118 17.8523 7.26515 17.8523C5.48313 17.8523 4.29512 17.2259 3.60973 16.5548C2.92434 15.8389 2.28464 15.2125 1.64494 13.9149C1.55355 13.736 1.46217 13.6017 1.32509 13.6017C0.959549 13.6017 0.274157 13.6017 0.274157 13.6017C0.137078 13.6017 0 13.6912 0 13.9149C0 14.7203 0 16.8679 0 17.7628C0 17.897 0.0913856 18.1207 0.228464 18.2102C2.23895 19.3288 4.88913 19.7762 7.08238 19.7762C10.9663 19.7315 13.982 17.2259 13.982 13.1991C14.0277 8.81429 9.96103 8.27738 6.71684 7.15881Z" transform="scale(2)" fill="#EE3224"/>
<path d="M6.48838 5.50334C3.51835 4.78746 2.92434 4.29529 2.92434 3.26621C2.92434 2.4161 3.70111 1.47651 5.25467 1.47651C6.80822 1.47651 8.2247 2.37136 8.91009 3.40044C9.00148 3.53466 9.13856 3.62415 9.32133 3.62415C9.54979 3.62415 9.91533 3.62415 10.0524 3.62415C10.1895 3.62415 10.2352 3.53466 10.2352 3.44518C10.2352 3.35569 10.2352 1.65548 10.2352 0.939594C10.2352 0.760624 10.1895 0.581653 9.96103 0.536911C8.81871 0.223713 7.12807 8.53397e-08 5.25467 8.53397e-08C2.74156 8.53397e-08 0.0456928 1.38702 0.0456928 4.42951C0.0456928 7.02458 2.19325 8.4116 4.02096 8.90377C7.12807 9.75388 8.04193 10.1566 8.04193 11.4541C8.04193 12.5727 7.12808 13.2885 5.57452 13.2885C3.97528 13.2885 2.5131 12.17 1.64494 10.1118C1.50786 9.88811 1.41647 9.84337 1.2794 9.84337C0.822469 9.84337 0.411235 9.84337 0.274157 9.84337C0.137078 9.84337 -2.78887e-06 9.88811 -2.78887e-06 10.1118C-2.78887e-06 10.8277 -2.78887e-06 12.8859 -2.78887e-06 13.0648C-2.78887e-06 13.2885 0.319852 13.557 0.319852 13.557C0.319852 13.557 1.23371 14.0939 2.23895 14.4518C3.06142 14.7203 4.11235 14.944 5.57452 14.944C9.27564 14.944 11.012 12.7069 11.012 10.1118C10.9206 7.69572 9.5498 6.21922 6.48838 5.50334Z" transform="translate(144.297 10.1123) scale(2)" fill="#EE3224"/>
<path d="M0.298463 3.17672H3.99958C4.22805 3.17672 4.36512 3.08724 4.41081 2.90827L5.27898 0.313198C5.32467 0.0894851 5.18759 5.33373e-09 5.00482 5.33373e-09H1.12093C0.938163 5.33373e-09 0.801083 0.134228 0.755391 0.268455L0.0243101 2.63981C-0.0670755 2.95301 0.115691 3.17672 0.298463 3.17672Z" transform="translate(128.441 0.268555) scale(2)" fill="#EE3224"/>
<path d="M17.5917 18.0313C16.7236 18.0313 16.0382 17.7628 15.6726 17.1811C15.4899 16.9127 10.8749 10.0223 10.7835 9.84336C11.9258 8.27737 12.5655 7.69572 13.5708 7.15881C14.2561 6.80087 15.4899 6.53241 16.4494 6.53241C16.4494 6.53241 16.6779 6.35344 16.6779 5.86128C16.6779 5.36911 16.4494 5.14539 16.4494 5.14539H11.8344C11.6517 5.14539 11.4232 5.27962 11.2861 5.50333C11.1947 5.63756 7.53931 10.7382 6.57976 12.1252C6.57976 7.15881 6.57976 0.626396 6.57976 0.492168C6.57976 0.223713 6.39699 1.33343e-09 6.07714 1.33343e-09C5.7116 1.33343e-09 0.274154 1.33343e-09 0.274154 1.33343e-09C0.274154 1.33343e-09 1.39443e-06 0.223713 1.39443e-06 0.715881C1.39443e-06 1.20805 0.274154 1.4765 0.274154 1.4765C0.274154 1.4765 1.9191 1.4765 2.14756 1.4765C2.37602 1.4765 2.46741 1.56599 2.46741 1.83445C2.46741 2.05816 2.46741 17.6733 2.46741 17.6733C2.46741 17.897 2.37603 17.9865 2.19326 17.9865H0.411234C0.411234 17.9865 0.137081 18.255 0.137081 18.7024C0.137081 19.1498 0.411234 19.463 0.411234 19.463H8.13332C8.13332 19.463 8.36178 19.1498 8.36178 18.7024C8.36178 18.2997 8.13332 18.0313 8.13332 18.0313H6.85392C6.67115 18.0313 6.53407 17.897 6.53407 17.7181C6.53407 17.7181 6.53407 16.1968 6.53407 14.0492C6.89961 13.6912 7.53931 13.0201 7.6307 12.9306C7.85916 12.7069 8.13332 12.7964 8.2247 12.9753C8.36178 13.1991 11.3318 17.6286 11.3775 17.7628C11.5146 17.9865 11.4232 18.076 11.2404 18.076H10.3266C10.3266 18.076 10.0981 18.3892 10.0981 18.7919C10.0981 19.1498 10.2809 19.5078 10.2809 19.5078H18.003C18.003 19.5078 18.2314 19.1946 18.2314 18.7919C18.2314 18.3892 17.9573 18.076 17.9573 18.076C17.9573 18.076 17.8659 18.0313 17.5917 18.0313Z" transform="translate(167.51 0.179199) scale(2)" fill="#EE3224"/>
<path d="M1.46217 1.70022V1.65547V1.4765C1.46217 1.29753 1.41648 1.16331 1.2794 1.07382C1.23371 1.02908 1.14232 0.984336 1.00524 0.984336C1.14232 0.984336 1.2337 0.939594 1.32509 0.850109C1.41647 0.760624 1.46217 0.671139 1.46217 0.536911C1.46217 0.313198 1.37078 0.17897 1.2337 0.0894853C1.14232 0.0447427 1.00524 -1.70679e-07 0.86816 -1.70679e-07C0.822467 -1.70679e-07 0.731087 -1.70679e-07 0.502623 -1.70679e-07C0.274159 -1.70679e-07 0.0913856 -1.70679e-07 0 -1.70679e-07V1.83444H0.502623V1.16331H0.594008H0.685392C0.776777 1.16331 0.822467 1.16331 0.86816 1.20805C0.959546 1.25279 1.00524 1.29753 1.00524 1.34228C1.00524 1.38702 1.05094 1.4765 1.05094 1.56599C1.05094 1.70022 1.05093 1.74496 1.09662 1.83444H1.55355V1.7897C1.46217 1.74496 1.46217 1.70022 1.46217 1.70022ZM0.913856 0.760624C0.868163 0.805366 0.776775 0.850109 0.639696 0.850109H0.456928V0.313198H0.594008C0.731086 0.313198 0.822467 0.313198 0.86816 0.35794C0.959546 0.402683 1.00524 0.447426 1.00524 0.581653C1.00524 0.626396 0.959548 0.715881 0.913856 0.760624Z" transform="translate(205.62 10.6479) scale(2)" fill="#EE3224"/>
<path d="M2.87865 0.492168C2.5588 0.17897 2.14756 -8.53397e-08 1.69063 -8.53397e-08C1.23371 -8.53397e-08 0.868163 0.134228 0.548313 0.447426C0.182771 0.760624 1.39443e-06 1.16331 1.39443e-06 1.65547C1.39443e-06 2.1029 0.182768 2.50558 0.502618 2.81878C0.822467 3.13198 1.23371 3.31095 1.69063 3.31095C2.14756 3.31095 2.5588 3.17672 2.87865 2.86352C3.1985 2.55033 3.38127 2.14764 3.38127 1.70022C3.38127 1.20805 3.1985 0.805366 2.87865 0.492168ZM2.65018 2.59507C2.37603 2.86352 2.05618 2.99775 1.69063 2.99775C1.32509 2.99775 1.00524 2.86352 0.731082 2.59507C0.456925 2.32661 0.31985 2.01342 0.31985 1.61073C0.31985 1.25279 0.456925 0.939594 0.731082 0.671138C1.00524 0.402683 1.32509 0.268456 1.73633 0.268456C2.10187 0.268456 2.42172 0.402683 2.69587 0.671138C2.97003 0.939594 3.10711 1.25279 3.10711 1.61073C3.06142 2.01342 2.92434 2.32661 2.65018 2.59507Z" transform="translate(203.607 9.12744) scale(2)" fill="#EE3224"/>
</svg>
